<mxfile host="app.diagrams.net" modified="2023-12-18T14:41:09.741Z" agent="Mozilla/5.0 (Macintosh; Intel Mac OS X 10_15_7) AppleWebKit/605.1.15 (KHTML, like Gecko) Version/17.1.2 Safari/605.1.15" version="22.1.11" etag="aulAAGA6MJRsjSqQu1-l" type="github">
  <diagram name="第 1 页" id="zIrLHahPiIz7M7ybXuOv">
    <mxGraphModel>
      <root>
        <mxCell id="0" />
        <mxCell id="1" parent="0" />
      </root>
    </mxGraphModel>
  </diagram>
</mxfile>
